<svg width="38px" height="38px" viewBox="0 0 38 38" xmlns="http://www.w3.org/2000/svg" xmlns:xlink="http://www.w3.org/1999/xlink"><defs><circle id="a" cx="19" cy="19" r="19"/></defs><g fill="none" fill-rule="evenodd"><circle fill="#F4F4F4" fill-rule="nonzero" cx="19" cy="19" r="19"/><g><mask id="b" fill="#fff"><use xlink:href="#a"/></mask><g/><path d="M23.127,27.784 C21.89,27.113 22.55,25.854 23.127,25.267 C23.869,24.512 24.777,21.912 24.777,21.912 C26.26,21.241 26.426,20.15 26.589,19.395 C27.249,17.214 25.6,16.878 25.6,16.878 C25.6,16.878 26.919,13.272 25.847,10.503 C24.445,6.896 18.757,5.553 17.767,8.91 C11.007,7.398 12.408,16.877 12.408,16.877 C12.408,16.877 10.758,17.212 11.418,19.394 C11.584,20.149 11.748,21.239 13.232,21.911 C13.232,21.911 14.139,24.511 14.882,25.266 C15.458,25.853 16.118,27.111 14.882,27.783 C12.408,29.124 4.988,29.461 4.988,35.333 C4.925,38.56 4.925,40.199 4.988,40.248 C8.753,43.178 21.261,49.49 32.818,40.248 C32.878,40.2 32.945,38.562 33.0180004,35.333 C33.02,29.461 25.6,29.126 23.127,27.784 L23.127,27.784 Z" fill="#999" fill-rule="nonzero" mask="url(#b)"/></g></g></svg>